<svg xmlns="http://www.w3.org/2000/svg" viewBox="0 0 84.05 17.25">
  <path fill="#fff" d="M5.7 0L2.83.36 0 12.71h2.8l1.33-5.83c.15-.5.36-.9.62-1.2.26-.31.56-.47.9-.47.46 0 .7.31.7.93 0 .25-.05.58-.14 1a55.76 55.76 0 0 1-.45 1.83l-.2.94c-.06.32-.09.6-.09.86 0 .58.18 1.07.55 1.47.37.39.96.58 1.75.58a3.29 3.29 0 0 0 2.77-1.58c.12.35.3.64.54.87.49.47 1.1.7 1.85.7.63 0 1.18-.14 1.63-.44.47-.32.9-.72 1.27-1.22.06.54.26.96.58 1.25.34.28.78.42 1.33.42a3.84 3.84 0 0 0 2.56-1.05l-1.25 5.48 2.94-.65L23 12.17c.27.43.83.65 1.66.65 1.16 0 2.1-.34 2.82-1.02A5.76 5.76 0 0 0 29 9.32c.3-.99.45-1.95.45-2.91 0-1.02-.22-1.75-.65-2.2-.42-.45-1-.67-1.73-.67-.87 0-1.63.26-2.28.78l.31-1.36h-2.8l-1.5 6.59a3.3 3.3 0 0 1-.61 1.15c-.26.31-.57.47-.94.47-.53 0-.8-.26-.8-.78 0-.2.03-.4.08-.58l1.4-6.18h-2.8l-.21.96v-.12c0-.28-.13-.5-.4-.67a2.2 2.2 0 0 0-1.18-.26c-1.05 0-1.96.35-2.72 1.04a6.52 6.52 0 0 0-1.72 2.5 7.85 7.85 0 0 0-.56 2.82v.05c-.16.3-.31.55-.47.73a1.2 1.2 0 0 1-.93.38c-.29 0-.49-.07-.6-.2a.83.83 0 0 1-.18-.56c0-.21.04-.49.12-.84.09-.36.18-.73.29-1.1.17-.62.3-1.15.39-1.57.09-.43.13-.83.13-1.18 0-.69-.2-1.2-.58-1.54-.39-.34-.92-.51-1.58-.51-.87 0-1.63.34-2.28 1.02zm47.81 0l-2.88.36-2.09 9.1a4.57 4.57 0 0 1-.96 1.73c-.37.38-.87.67-1.5.87l1.93-8.43h-2.8l-1.36 5.94c-.16.45-.37.81-.63 1.09-.26.27-.56.4-.9.4-.38 0-.58-.27-.58-.8 0-.16.02-.31.06-.45l1.4-6.18h-2.8l-1.33 5.83c-.1.48-.15.88-.15 1.18 0 .73.19 1.27.56 1.63.4.37.9.55 1.52.55a3.2 3.2 0 0 0 2.34-1.02l-.23.98c-.93.28-1.69.63-2.28 1.04-.6.42-.9.98-.9 1.67 0 .57.2 1 .62 1.3.42.3.94.46 1.56.46.8 0 1.53-.22 2.16-.67.64-.44 1.09-1.24 1.35-2.42l.29-1.3a4.94 4.94 0 0 0 2.02-1.02c.2-.17.4-.38.57-.62.1.4.3.74.6 1 .48.4 1.15.6 2.03.6a4.6 4.6 0 0 0 3.1-1.02 5.61 5.61 0 0 0 1.71-2.43c.35-.96.53-1.85.53-2.69 0-2.07-.77-3.1-2.3-3.1-.23 0-.47.03-.7.1-.23.07-.53.2-.9.4zm16.12 0l-2.88.36-2.08 9.1h-.02A8.4 8.4 0 0 1 63 10.84c-.5.3-1.1.45-1.8.45-.49 0-.84-.1-1.06-.3-.22-.22-.33-.63-.33-1.22 0-.12 0-.36.03-.73a5.73 5.73 0 0 0 2.2-.58 4.59 4.59 0 0 0 1.66-1.38c.42-.57.62-1.2.62-1.87 0-1.16-.71-1.74-2.14-1.74-1.22 0-2.22.37-3.02 1.1-.79.73-1.36 1.6-1.71 2.6-.35 1-.53 1.93-.53 2.76 0 1 .27 1.73.8 2.2.53.46 1.28.69 2.24.69 1.75 0 3.27-.76 4.56-2.28v.1c0 .73.18 1.27.56 1.63.39.37.9.55 1.52.55.74 0 1.48-.23 2.24-.7.34-.2.65-.5.93-.9.08.45.25.8.52 1.05.39.37.9.55 1.52.55.74 0 1.48-.23 2.24-.7.34-.2.65-.5.93-.9.08.45.25.8.52 1.05.39.37.9.55 1.52.55.92 0 1.71-.35 2.37-1.05l-.2.8c-.76.21-1.37.42-1.82.61-.46.2-.83.46-1.11.8-.29.34-.43.78-.43 1.3 0 .58.23 1.04.68 1.4.47.38 1 .57 1.62.57.79 0 1.51-.22 2.16-.67.66-.45 1.12-1.25 1.38-2.42l2.38-10.53h-2.83L79.9 9.46c-.16.5-.36.89-.62 1.18-.26.28-.58.42-.94.42-.39 0-.58-.27-.58-.8 0-.16.02-.31.06-.45l1.4-6.18h-2.8l-1.33 5.83h-.01c-.14.47-.38.86-.7 1.16-.33.3-.68.44-1.05.44-.29 0-.5-.05-.63-.15-.11-.1-.17-.28-.17-.52 0-.2.02-.4.08-.58L74.85 0l-2.89.36-2.08 9.1h-.01c-.14.47-.38.86-.7 1.16-.33.3-.68.44-1.05.44-.29 0-.5-.05-.63-.15-.11-.1-.17-.28-.17-.52 0-.2.02-.4.08-.58zm-38.2 2.96l-3.25 14.29 2.94-.65 1-4.43c.28.43.83.65 1.66.65 1.17 0 2.11-.34 2.83-1.02a5.76 5.76 0 0 0 1.52-2.48c.3-.99.44-1.95.44-2.91 0-1.02-.21-1.75-.64-2.2-.43-.45-1-.67-1.73-.67-.87 0-1.63.26-2.28.78l.31-1.36zm30.9 1.47c.33 0 .5.25.5.74 0 .5-.14.97-.41 1.42-.26.45-.61.82-1.06 1.1-.42.3-.88.46-1.36.48.2-.97.51-1.83.95-2.6.46-.76.92-1.14 1.39-1.14zm-46.39.24c.28 0 .48.08.6.23.14.15.2.3.2.46l-.93 4.1c-.12.5-.34.89-.66 1.18-.32.28-.63.42-.96.42-.27 0-.5-.09-.7-.26-.18-.17-.27-.55-.27-1.16 0-.6.12-1.3.35-2.09.23-.8.56-1.47.97-2.03.42-.57.89-.85 1.4-.85zm9.87.18c.64 0 .97.5.97 1.5 0 .66-.1 1.37-.3 2.13-.18.75-.47 1.4-.89 1.94-.4.55-.91.82-1.54.82-.39 0-.63-.14-.74-.42l1.15-5.08c.18-.28.4-.5.62-.66.25-.15.5-.23.73-.23zm9.12 0c.65 0 .98.5.98 1.5 0 .66-.1 1.37-.3 2.13-.18.75-.48 1.4-.9 1.94-.4.55-.9.82-1.53.82-.39 0-.64-.14-.74-.42l1.15-5.08c.18-.28.39-.5.62-.66.25-.15.49-.23.72-.23zm18.54.02c.33 0 .58.17.76.5.18.34.27.76.27 1.24 0 .64-.1 1.31-.3 2.01-.22.7-.5 1.28-.85 1.75-.35.46-.72.69-1.13.69-.68 0-1.03-.28-1.03-.84 0-.13.02-.27.06-.41l1.07-4.62c.1-.1.26-.18.49-.23.25-.06.47-.1.66-.1zm25.6 8.28l-.24 1.07c-.12.5-.28.85-.49 1.07-.2.23-.43.34-.66.34a.81.81 0 0 1-.55-.2c-.15-.12-.23-.25-.23-.4 0-.46.19-.83.57-1.12.37-.3.9-.55 1.6-.76zm-36.16.54l-.12.53c-.11.52-.28.92-.48 1.2-.21.27-.42.41-.65.41a.64.64 0 0 1-.48-.18.58.58 0 0 1-.18-.42c0-.59.64-1.1 1.91-1.54z"/>
</svg>
